<?xml version="1.0" encoding="UTF-8" standalone="no"?>
<svg
   xmlns:dc="http://purl.org/dc/elements/1.1/"
   xmlns:cc="http://creativecommons.org/ns#"
   xmlns:rdf="http://www.w3.org/1999/02/22-rdf-syntax-ns#"
   xmlns:svg="http://www.w3.org/2000/svg"
   xmlns="http://www.w3.org/2000/svg"
   xmlns:sodipodi="http://sodipodi.sourceforge.net/DTD/sodipodi-0.dtd"
   xmlns:inkscape="http://www.inkscape.org/namespaces/inkscape"
   id="networkSVG"
   class="Xlv"
   width="309.27011"
   height="348.84061"
   style="display:block"
   version="1.1"
   inkscape:version="0.48.3.1 r9886"
   sodipodi:docname="resRes.svg"
   inkscape:export-filename="resRes2.png"
   inkscape:export-xdpi="85.139168"
   inkscape:export-ydpi="85.139168">
  <metadata
     id="metadata2150">
    <rdf:RDF>
      <cc:Work
         rdf:about="">
        <dc:format>image/svg+xml</dc:format>
        <dc:type
           rdf:resource="http://purl.org/dc/dcmitype/StillImage" />
        <dc:title></dc:title>
      </cc:Work>
    </rdf:RDF>
  </metadata>
  <defs
     id="defs2148" />
  <sodipodi:namedview
     pagecolor="#ffffff"
     bordercolor="#666666"
     borderopacity="1"
     objecttolerance="10"
     gridtolerance="10"
     guidetolerance="10"
     inkscape:pageopacity="0"
     inkscape:pageshadow="2"
     inkscape:window-width="1280"
     inkscape:window-height="937"
     id="namedview2146"
     showgrid="false"
     inkscape:zoom="1"
     inkscape:cx="53.65535"
     inkscape:cy="24.027772"
     inkscape:window-x="0"
     inkscape:window-y="27"
     inkscape:window-maximized="1"
     inkscape:current-layer="networkSVG"
     fit-margin-top="5"
     fit-margin-left="5"
     fit-margin-right="5"
     fit-margin-bottom="5" />
  <g
     class="protein"
     transform="translate(167.68974,224.63175)"
     id="g258">
    <rect
       x="-108.58037"
       y="-10"
       width="217.16074"
       height="20"
       id="rect260"
       style="fill:none;stroke:#ffa500;stroke-width:10;stroke-opacity:0" />
    <g
       class="protein"
       transform="scale(4.5,1)"
       id="g262">
      <rect
         class="protein"
         x="-5.5341673"
         y="-10"
         width="14.875842"
         height="20"
         id="rect264"
         style="fill:#fdd0a2;fill-opacity:0.85" />
      <rect
         class="protein"
         x="-22.889317"
         y="-10"
         width="11.511068"
         height="20"
         id="rect266"
         style="fill:#31a354;fill-opacity:0.85" />
      <rect
         class="protein"
         x="11.643888"
         y="-10"
         width="10.714149"
         height="20"
         id="rect268"
         style="fill:#31a354;fill-opacity:0.85" />
      <rect
         class="protein"
         x="-11.466795"
         y="-10"
         width="6.375361"
         height="20"
         id="rect270"
         style="fill:#74c476;fill-opacity:0.85" />
      <rect
         class="protein"
         x="8.4562082"
         y="-10"
         width="3.1876805"
         height="20"
         id="rect272"
         style="fill:#74c476;fill-opacity:0.85" />
    </g>
  </g>
  <g
     class="protein"
     transform="translate(166.68976,126.63181)"
     id="g274">
    <rect
       x="-105.79115"
       y="-10"
       width="211.58229"
       height="20"
       id="rect276"
       style="fill:none;stroke:#ffa500;stroke-width:10;stroke-opacity:0" />
    <g
       class="protein"
       transform="scale(4.5,1)"
       id="g278">
      <rect
         class="protein"
         x="-5.622714"
         y="-10"
         width="15.584215"
         height="20"
         id="rect280"
         style="fill:#fdd0a2;fill-opacity:0.85" />
      <rect
         class="protein"
         x="-22.53513"
         y="-10"
         width="11.511068"
         height="20"
         id="rect282"
         style="fill:#31a354;fill-opacity:0.85" />
      <rect
         class="protein"
         x="12.263715"
         y="-10"
         width="10.537055"
         height="20"
         id="rect284"
         style="fill:#31a354;fill-opacity:0.85" />
      <rect
         class="protein"
         x="-10.935514"
         y="-10"
         width="5.7555342"
         height="20"
         id="rect286"
         style="fill:#74c476;fill-opacity:0.85" />
      <rect
         class="protein"
         x="8.9874878"
         y="-10"
         width="3.2762272"
         height="20"
         id="rect288"
         style="fill:#74c476;fill-opacity:0.85" />
    </g>
  </g>
  <line
     class="link"
     x1="272.08243"
     y1="126.63179"
     x2="269.89474"
     y2="224.63176"
     id="line426"
     style="fill:none;stroke:#ffff00;stroke-width:10;stroke-linecap:round;stroke-opacity:0" />
  <line
     class="link"
     x1="272.08243"
     y1="126.63179"
     x2="269.09787"
     y2="224.63176"
     id="line428"
     style="fill:none;stroke:#ffff00;stroke-width:10;stroke-linecap:round;stroke-opacity:0" />
  <line
     class="link"
     x1="64.88324"
     y1="126.63179"
     x2="67.477051"
     y2="224.63176"
     id="line430"
     style="fill:none;stroke:#ffff00;stroke-width:10;stroke-linecap:round;stroke-opacity:0" />
  <line
     class="link"
     x1="111.50301"
     y1="126.63179"
     x2="124.05837"
     y2="224.63176"
     id="line432"
     style="fill:none;stroke:#ffff00;stroke-width:10;stroke-linecap:round;stroke-opacity:0" />
  <line
     class="link"
     x1="272.08243"
     y1="126.63179"
     x2="210.9227"
     y2="224.63176"
     id="line434"
     style="fill:none;stroke:#ffff00;stroke-width:10;stroke-linecap:round;stroke-opacity:0" />
  <line
     class="link"
     x1="232.23648"
     y1="126.63179"
     x2="76.641624"
     y2="224.63176"
     id="line436"
     style="fill:none;stroke:#ffff00;stroke-width:10;stroke-linecap:round;stroke-opacity:0" />
  <line
     class="link"
     x1="64.88324"
     y1="126.63179"
     x2="90.189262"
     y2="224.63176"
     id="line438"
     style="fill:none;stroke:#ffff00;stroke-width:10;stroke-linecap:round;stroke-opacity:0" />
  <line
     class="link"
     x1="272.08243"
     y1="126.63179"
     x2="90.189262"
     y2="224.63176"
     id="line440"
     style="fill:none;stroke:#ffff00;stroke-width:10;stroke-linecap:round;stroke-opacity:0" />
  <line
     class="link"
     x1="272.08243"
     y1="126.63179"
     x2="67.477051"
     y2="224.63176"
     id="line442"
     style="fill:none;stroke:#ffff00;stroke-width:10;stroke-linecap:round;stroke-opacity:0" />
  <line
     class="link"
     x1="272.08243"
     y1="126.63179"
     x2="139.9968"
     y2="224.63176"
     id="line444"
     style="fill:none;stroke:#ffff00;stroke-width:10;stroke-linecap:round;stroke-opacity:0" />
  <line
     class="link"
     x1="272.08243"
     y1="126.63179"
     x2="269.89474"
     y2="224.63176"
     id="line582"
     style="fill:none;stroke:#e08214;stroke-width:1.50000012;stroke-linecap:round" />
  <line
     class="link"
     x1="272.08243"
     y1="126.63179"
     x2="269.09787"
     y2="224.63176"
     id="line584"
     style="fill:none;stroke:#e08214;stroke-width:1.50000012;stroke-linecap:round" />
  <line
     class="link"
     x1="64.88324"
     y1="126.63179"
     x2="67.477051"
     y2="224.63176"
     id="line586"
     style="fill:none;stroke:#e08214;stroke-width:1.50000012;stroke-linecap:round" />
  <line
     class="link"
     x1="111.50301"
     y1="126.63179"
     x2="124.05837"
     y2="224.63176"
     id="line588"
     style="fill:none;stroke:#e08214;stroke-width:1.50000012;stroke-linecap:round" />
  <line
     class="link"
     x1="272.08243"
     y1="126.63179"
     x2="210.9227"
     y2="224.63176"
     id="line590"
     style="fill:none;stroke:#e08214;stroke-width:1.50000012;stroke-linecap:round" />
  <line
     class="link"
     x1="232.23648"
     y1="126.63179"
     x2="76.641624"
     y2="224.63176"
     id="line592"
     style="fill:none;stroke:#e08214;stroke-width:1.50000012;stroke-linecap:round" />
  <line
     class="link"
     x1="64.88324"
     y1="126.63179"
     x2="90.189262"
     y2="224.63176"
     id="line594"
     style="fill:none;stroke:#e08214;stroke-width:1.50000012;stroke-linecap:round" />
  <line
     class="link"
     x1="272.08243"
     y1="126.63179"
     x2="90.189262"
     y2="224.63176"
     id="line596"
     style="fill:none;stroke:#e08214;stroke-width:1.50000012;stroke-linecap:round" />
  <line
     class="link"
     x1="272.08243"
     y1="126.63179"
     x2="67.477051"
     y2="224.63176"
     id="line598"
     style="fill:none;stroke:#e08214;stroke-width:1.50000012;stroke-linecap:round" />
  <line
     class="link"
     x1="272.08243"
     y1="126.63179"
     x2="139.9968"
     y2="224.63176"
     id="line600"
     style="fill:none;stroke:#e08214;stroke-width:1.50000012;stroke-linecap:round" />
  <g
     class="protein"
     transform="translate(166.68976,126.63181)"
     id="g655">
    <text
       x="0"
       y="10"
       font-size="16"
       class="xlv_text"
       transform="translate(-115.79115,-5)"
       id="text657"
       style="font-size:16px;text-anchor:end;font-family:Arial">TCPZ</text>
    <g
       class="stick"
       id="g659">
      <g
         class="rectAndTicks"
         id="g661">
        <rect
           x="-105.79115"
           y="-10"
           width="211.58229"
           height="20"
           id="rect663"
           style="fill:none;stroke:#000000;stroke-width:0.75" />
        <g
           class="rect"
           transform="scale(4.5,1)"
           id="g665">
          <rect
             class="pBackground Xlr_protein"
             x="-23.509144"
             y="-10"
             width="47.018288"
             height="20"
             id="rect667"
             style="fill-opacity:0;stroke:none" />
        </g>
        <g
           id="g669">
          <line
             x1="-105.39268"
             y1="-7.5"
             x2="-105.39268"
             y2="7.5"
             id="line671"
             style="stroke:#000000" />
          <g
             transform="translate(-105.39269,0)"
             id="g673">
            <text
               class="Xlr_proteinScaleLabelText"
               font-size="14"
               x="0"
               y="23"
               id="text675"
               style="font-size:14px;text-anchor:middle;font-family:Arial">1</text>
          </g>
          <line
             x1="-65.945137"
             y1="-7.5"
             x2="-65.945137"
             y2="7.5"
             id="line677"
             style="stroke:#000000" />
          <line
             x1="-26.099134"
             y1="-7.5"
             x2="-26.099134"
             y2="7.5"
             id="line679"
             style="stroke:#000000" />
          <g
             transform="translate(-26.099134,0)"
             id="g681">
            <text
               class="Xlr_proteinScaleLabelText"
               font-size="14"
               x="0"
               y="23"
               id="text683"
               style="font-size:14px;text-anchor:middle;font-family:Arial">200</text>
          </g>
          <line
             x1="13.746872"
             y1="-7.5"
             x2="13.746872"
             y2="7.5"
             id="line685"
             style="stroke:#000000" />
          <line
             x1="53.592876"
             y1="-7.5"
             x2="53.592876"
             y2="7.5"
             id="line687"
             style="stroke:#000000" />
          <g
             transform="translate(53.592878,0)"
             id="g689">
            <text
               class="Xlr_proteinScaleLabelText"
               font-size="14"
               x="0"
               y="23"
               id="text691"
               style="font-size:14px;text-anchor:middle;font-family:Arial">400</text>
          </g>
          <line
             x1="93.438881"
             y1="-7.5"
             x2="93.438881"
             y2="7.5"
             id="line693"
             style="stroke:#000000" />
          <g
             transform="translate(105.79115,0)"
             id="g695">
            <text
               class="Xlr_proteinScaleLabelText"
               font-size="14"
               x="0"
               y="23"
               id="text697"
               style="font-size:14px;text-anchor:middle;font-family:Arial">531</text>
          </g>
          <line
             x1="105.79115"
             y1="-7.5"
             x2="105.79115"
             y2="7.5"
             id="line699"
             style="stroke:#000000" />
        </g>
      </g>
      <g
         class="highlights"
         id="g701">
        <path
           class="link"
           d="m -1.7930703,0 0,-13 a 0.79692013,0.79692013 0 1 1 1.59384027,0 l 0,13"
           x1="-458.3538365817392"
           y1="1224.2476806640625"
           id="path703"
           inkscape:connector-curvature="0"
           style="fill:none;stroke:#ffff00;stroke-width:10;stroke-opacity:0" />
        <path
           class="link"
           d="m -26.497594,0 0,-13 a 35.462945,35.462945 0 1 1 70.92589,0 l 0,13"
           x1="-497.05233688587487"
           y1="1224.2476806640625"
           id="path705"
           inkscape:connector-curvature="0"
           style="fill:none;stroke:#ffff00;stroke-width:10;stroke-opacity:0" />
        <path
           class="link"
           d="m 2.5899904,0 0,-13 a 0.19923003,0.19923003 0 1 1 0.39846,0 l 0,13"
           x1="-451.48797362455383"
           y1="1224.2476806640625"
           id="path707"
           inkscape:connector-curvature="0"
           style="fill:none;stroke:#ffff00;stroke-width:10;stroke-opacity:0" />
        <path
           class="link"
           d="m -0.19923003,0 0,-13 a 1.5938402,1.5938402 0 1 1 3.18768043,0 l 0,13"
           x1="-455.85715914276267"
           y1="1224.2476806640625"
           id="path709"
           inkscape:connector-curvature="0"
           style="fill:none;stroke:#ffff00;stroke-width:10;stroke-opacity:0" />
        <path
           class="link"
           d="m -101.80654,0 0,-13 a 6.1761309,6.1761309 0 1 1 12.352257,0 l 0,13"
           x1="-615.0203458775144"
           y1="1224.2476806640625"
           id="path711"
           inkscape:connector-curvature="0"
           style="fill:none;stroke:#ffff00;stroke-width:10;stroke-opacity:0" />
        <path
           class="link"
           d="m 2.9884504,0 0,-13 a 1.3946102,1.3946102 0 1 1 2.7892204,0 l 0,13"
           x1="-450.8638042648097"
           y1="1224.2476806640625"
           id="path713"
           inkscape:connector-curvature="0"
           style="fill:none;stroke:#ffff00;stroke-width:10;stroke-opacity:0" />
        <path
           class="link"
           d="m -2.9884504,0 0,-13 a 1.3946102,1.3946102 0 1 1 2.78922037,0 l 0,13"
           x1="-460.22634466097156"
           y1="1224.2476806640625"
           id="path715"
           inkscape:connector-curvature="0"
           style="fill:none;stroke:#ffff00;stroke-width:10;stroke-opacity:0" />
        <path
           class="link"
           d="m -17.333013,0 0,-13 a 11.156882,11.156882 0 1 1 22.3137637,0 l 0,13"
           x1="-482.69644161176006"
           y1="1224.2476806640625"
           id="path717"
           inkscape:connector-curvature="0"
           style="fill:none;stroke:#ffff00;stroke-width:10;stroke-opacity:0" />
        <path
           class="link"
           d="m -54.389798,0 0,-13 a 59.968239,59.968239 0 1 1 119.936477,0 l 0,13"
           x1="-540.7441920679636"
           y1="1224.2476806640625"
           id="path719"
           inkscape:connector-curvature="0"
           style="fill:none;stroke:#ffff00;stroke-width:10;stroke-opacity:0" />
        <path
           class="link"
           d="m -26.497594,0 0,-13 a 36.259865,36.259865 0 1 1 72.519731,0 l 0,13"
           x1="-497.05233688587487"
           y1="1224.2476806640625"
           id="path721"
           inkscape:connector-curvature="0"
           style="fill:none;stroke:#ffff00;stroke-width:10;stroke-opacity:0" />
        <path
           class="link"
           d="m -17.333013,0 0,-13 a 16.934552,16.934552 0 1 1 33.869105,0 l 0,13"
           x1="-482.69644161176006"
           y1="1224.2476806640625"
           id="path723"
           inkscape:connector-curvature="0"
           style="fill:none;stroke:#ffff00;stroke-width:10;stroke-opacity:0" />
        <path
           class="link"
           d="m -17.333013,0 0,-13 a 28.489894,28.489894 0 1 1 56.979789,0 l 0,13"
           x1="-482.69644161176006"
           y1="1224.2476806640625"
           id="path725"
           inkscape:connector-curvature="0"
           style="fill:none;stroke:#ffff00;stroke-width:10;stroke-opacity:0" />
        <path
           class="link"
           d="m -26.497594,0 0,-13 a 4.5822907,4.5822907 0 1 1 9.164581,0 l 0,13"
           x1="-497.05233688587487"
           y1="1224.2476806640625"
           id="path727"
           inkscape:connector-curvature="0"
           style="fill:none;stroke:#ffff00;stroke-width:10;stroke-opacity:0" />
        <path
           class="link"
           d="m -83.875842,0 0,-13 a 66.3436,66.3436 0 1 1 132.687199,0 l 0,13"
           x1="-586.9327246890289"
           y1="1224.2476806640625"
           id="path729"
           inkscape:connector-curvature="0"
           style="fill:none;stroke:#ffff00;stroke-width:10;stroke-opacity:0" />
        <path
           class="link"
           d="m 4.9807507,0 0,-13 a 0.39846006,0.39846006 0 1 1 0.7969201,0 l 0,13"
           x1="-447.7429574660891"
           y1="1224.2476806640625"
           id="path731"
           inkscape:connector-curvature="0"
           style="fill:none;stroke:#ffff00;stroke-width:10;stroke-opacity:0" />
        <path
           class="link"
           d="m -55.186718,0 0,-13 a 74.711261,74.711261 0 1 1 149.422522,0 l 0,13"
           x1="-541.9925307874519"
           y1="1224.2476806640625"
           id="path733"
           inkscape:connector-curvature="0"
           style="fill:none;stroke:#ffff00;stroke-width:10;stroke-opacity:0" />
        <path
           class="link"
           d="m -101.80654,0 0,-13 a 103.59962,103.59962 0 1 1 207.19923,0 l 0,13"
           x1="-615.0203458775144"
           y1="1224.2476806640625"
           id="path735"
           inkscape:connector-curvature="0"
           style="fill:none;stroke:#ffff00;stroke-width:10;stroke-opacity:0" />
      </g>
      <g
         class="intraLinks"
         id="g737">
        <path
           class="link"
           d="m -1.7930703,0 0,-13 a 0.79692013,0.79692013 0 1 1 1.59384027,0 l 0,13"
           x1="-458.3538365817392"
           y1="1224.2476806640625"
           id="path739"
           inkscape:connector-curvature="0"
           style="fill:none;stroke:#8073ac;stroke-width:1.5" />
        <path
           class="link"
           d="m -26.497594,0 0,-13 a 35.462945,35.462945 0 1 1 70.92589,0 l 0,13"
           x1="-497.05233688587487"
           y1="1224.2476806640625"
           id="path741"
           inkscape:connector-curvature="0"
           style="fill:none;stroke:#8073ac;stroke-width:1.5" />
        <path
           class="link"
           d="m 2.5899904,0 0,-13 a 0.19923003,0.19923003 0 1 1 0.39846,0 l 0,13"
           x1="-451.48797362455383"
           y1="1224.2476806640625"
           id="path743"
           inkscape:connector-curvature="0"
           style="fill:none;stroke:#8073ac;stroke-width:1.5" />
        <path
           class="link"
           d="m -0.19923003,0 0,-13 a 1.5938402,1.5938402 0 1 1 3.18768043,0 l 0,13"
           x1="-455.85715914276267"
           y1="1224.2476806640625"
           id="path745"
           inkscape:connector-curvature="0"
           style="fill:none;stroke:#8073ac;stroke-width:1.5" />
        <path
           class="link"
           d="m -101.80654,0 0,-13 a 6.1761309,6.1761309 0 1 1 12.352257,0 l 0,13"
           x1="-615.0203458775144"
           y1="1224.2476806640625"
           id="path747"
           inkscape:connector-curvature="0"
           style="fill:none;stroke:#8073ac;stroke-width:1.5" />
        <path
           class="link"
           d="m 2.9884504,0 0,-13 a 1.3946102,1.3946102 0 1 1 2.7892204,0 l 0,13"
           x1="-450.8638042648097"
           y1="1224.2476806640625"
           id="path749"
           inkscape:connector-curvature="0"
           style="fill:none;stroke:#8073ac;stroke-width:1.5" />
        <path
           class="link"
           d="m -2.9884504,0 0,-13 a 1.3946102,1.3946102 0 1 1 2.78922037,0 l 0,13"
           x1="-460.22634466097156"
           y1="1224.2476806640625"
           id="path751"
           inkscape:connector-curvature="0"
           style="fill:none;stroke:#8073ac;stroke-width:1.5" />
        <path
           class="link"
           d="m -17.333013,0 0,-13 a 11.156882,11.156882 0 1 1 22.3137637,0 l 0,13"
           x1="-482.69644161176006"
           y1="1224.2476806640625"
           id="path753"
           inkscape:connector-curvature="0"
           style="fill:none;stroke:#8073ac;stroke-width:1.5" />
        <path
           class="link"
           d="m -54.389798,0 0,-13 a 59.968239,59.968239 0 1 1 119.936477,0 l 0,13"
           x1="-540.7441920679636"
           y1="1224.2476806640625"
           id="path755"
           inkscape:connector-curvature="0"
           style="fill:none;stroke:#8073ac;stroke-width:1.5" />
        <path
           class="link"
           d="m -26.497594,0 0,-13 a 36.259865,36.259865 0 1 1 72.519731,0 l 0,13"
           x1="-497.05233688587487"
           y1="1224.2476806640625"
           id="path757"
           inkscape:connector-curvature="0"
           style="fill:none;stroke:#8073ac;stroke-width:1.5" />
        <path
           class="link"
           d="m -17.333013,0 0,-13 a 16.934552,16.934552 0 1 1 33.869105,0 l 0,13"
           x1="-482.69644161176006"
           y1="1224.2476806640625"
           id="path759"
           inkscape:connector-curvature="0"
           style="fill:none;stroke:#8073ac;stroke-width:1.5" />
        <path
           class="link"
           d="m -17.333013,0 0,-13 a 28.489894,28.489894 0 1 1 56.979789,0 l 0,13"
           x1="-482.69644161176006"
           y1="1224.2476806640625"
           id="path761"
           inkscape:connector-curvature="0"
           style="fill:none;stroke:#8073ac;stroke-width:1.5" />
        <path
           class="link"
           d="m -26.497594,0 0,-13 a 4.5822907,4.5822907 0 1 1 9.164581,0 l 0,13"
           x1="-497.05233688587487"
           y1="1224.2476806640625"
           id="path763"
           inkscape:connector-curvature="0"
           style="fill:none;stroke:#8073ac;stroke-width:1.5" />
        <path
           class="link"
           d="m -83.875842,0 0,-13 a 66.3436,66.3436 0 1 1 132.687199,0 l 0,13"
           x1="-586.9327246890289"
           y1="1224.2476806640625"
           id="path765"
           inkscape:connector-curvature="0"
           style="fill:none;stroke:#8073ac;stroke-width:1.5" />
        <path
           class="link"
           d="m 4.9807507,0 0,-13 a 0.39846006,0.39846006 0 1 1 0.7969201,0 l 0,13"
           x1="-447.7429574660891"
           y1="1224.2476806640625"
           id="path767"
           inkscape:connector-curvature="0"
           style="fill:none;stroke:#8073ac;stroke-width:1.5" />
        <path
           class="link"
           d="m -55.186718,0 0,-13 a 74.711261,74.711261 0 1 1 149.422522,0 l 0,13"
           x1="-541.9925307874519"
           y1="1224.2476806640625"
           id="path769"
           inkscape:connector-curvature="0"
           style="fill:none;stroke:#8073ac;stroke-width:1.5" />
        <path
           class="link"
           d="m -101.80654,0 0,-13 a 103.59962,103.59962 0 1 1 207.19923,0 l 0,13"
           x1="-615.0203458775144"
           y1="1224.2476806640625"
           id="path771"
           inkscape:connector-curvature="0"
           style="fill:none;stroke:#8073ac;stroke-width:1.5" />
      </g>
      <g
         class="protein"
         transform="scale(4.5,1)"
         id="g773">
        <rect
           class="protein"
           x="-5.622714"
           y="-10"
           width="15.584215"
           height="20"
           id="rect775"
           style="fill:#fdd0a2;fill-opacity:0" />
        <rect
           class="protein"
           x="-22.53513"
           y="-10"
           width="11.511068"
           height="20"
           id="rect777"
           style="fill:#31a354;fill-opacity:0" />
        <rect
           class="protein"
           x="12.263715"
           y="-10"
           width="10.537055"
           height="20"
           id="rect779"
           style="fill:#31a354;fill-opacity:0" />
        <rect
           class="protein"
           x="-10.935514"
           y="-10"
           width="5.7555342"
           height="20"
           id="rect781"
           style="fill:#74c476;fill-opacity:0" />
        <rect
           class="protein"
           x="8.9874878"
           y="-10"
           width="3.2762272"
           height="20"
           id="rect783"
           style="fill:#74c476;fill-opacity:0" />
      </g>
      <g
         transform="translate(-119.79115,0)"
         id="g785">
        <circle
           r="14"
           id="circle787"
           d="M 14,0 C 14,7.7319865 7.7319865,14 0,14 -7.7319865,14 -14,7.7319865 -14,0 c 0,-7.7319865 6.2680135,-14 14,-14 7.7319865,0 14,6.2680135 14,14 z"
           cx="0"
           cy="0"
           sodipodi:cx="0"
           sodipodi:cy="0"
           sodipodi:rx="14"
           sodipodi:ry="14"
           style="fill:#808080;fill-opacity:0;stroke:none" />
      </g>
      <g
         transform="translate(119.79115,0)"
         id="g789">
        <circle
           r="14"
           id="circle791"
           d="M 14,0 C 14,7.7319865 7.7319865,14 0,14 -7.7319865,14 -14,7.7319865 -14,0 c 0,-7.7319865 6.2680135,-14 14,-14 7.7319865,0 14,6.2680135 14,14 z"
           cx="0"
           cy="0"
           sodipodi:cx="0"
           sodipodi:cy="0"
           sodipodi:rx="14"
           sodipodi:ry="14"
           style="fill:#808080;fill-opacity:0;stroke:none" />
      </g>
    </g>
  </g>
  <text
     style="font-size:16px;text-anchor:end;font-family:Arial"
     id="text801"
     class="xlv_text"
     font-size="16"
     y="229.63174"
     x="49.109375">TCPG</text>
  <g
     class="highlights"
     transform="matrix(1,0,0,-1,167.68974,224.63175)"
     id="g845">
    <path
       class="link"
       d="m -77.500481,0 0,-13 a 89.653513,89.653513 0 1 1 179.307021,0 l 0,13"
       x1="-575.3795781655447"
       y1="1377.7601318359375"
       id="path847"
       inkscape:connector-curvature="0"
       style="fill:none;stroke:#ffff00;stroke-width:10;stroke-opacity:0" />
    <path
       class="link"
       d="m -20.122233,0 0,-13 a 31.677575,31.677575 0 1 1 63.355149,0 l 0,13"
       x1="-485.4991903623908"
       y1="1377.7601318359375"
       id="path849"
       inkscape:connector-curvature="0"
       style="fill:none;stroke:#ffff00;stroke-width:10;stroke-opacity:0" />
    <path
       class="link"
       d="m -15.340712,0 0,-13 a 23.708373,23.708373 0 1 1 47.416747,0 l 0,13"
       x1="-478.0091580454613"
       y1="1377.7601318359375"
       id="path851"
       inkscape:connector-curvature="0"
       style="fill:none;stroke:#ffff00;stroke-width:10;stroke-opacity:0" />
    <path
       class="link"
       d="m -53.592878,0 0,-13 a 73.515881,73.515881 0 1 1 147.031762,0 l 0,13"
       x1="-537.9294165808973"
       y1="1377.7601318359375"
       id="path853"
       inkscape:connector-curvature="0"
       style="fill:none;stroke:#ffff00;stroke-width:10;stroke-opacity:0" />
    <path
       class="link"
       d="m 101.40808,0 0,-13 a 0.39846006,0.39846006 0 1 1 0.79692,0 l 0,13"
       x1="-295.1275356404328"
       y1="1377.7601318359375"
       id="path855"
       inkscape:connector-curvature="0"
       style="fill:none;stroke:#ffff00;stroke-width:10;stroke-opacity:0" />
    <path
       class="link"
       d="m -27.692974,0 0,-13 a 35.462945,35.462945 0 1 1 70.92589,0 l 0,13"
       x1="-497.3584081975291"
       y1="1377.7601318359375"
       id="path857"
       inkscape:connector-curvature="0"
       style="fill:none;stroke:#ffff00;stroke-width:10;stroke-opacity:0" />
    <path
       class="link"
       d="m -15.340712,0 0,-13 a 27.095284,27.095284 0 1 1 54.190568,0 l 0,13"
       x1="-478.0091580454613"
       y1="1377.7601318359375"
       id="path859"
       inkscape:connector-curvature="0"
       style="fill:none;stroke:#ffff00;stroke-width:10;stroke-opacity:0" />
    <path
       class="link"
       d="m -57.577478,0 0,-13 a 75.508181,75.508181 0 1 1 151.016362,0 l 0,13"
       x1="-544.1711101783385"
       y1="1377.7601318359375"
       id="path861"
       inkscape:connector-curvature="0"
       style="fill:none;stroke:#ffff00;stroke-width:10;stroke-opacity:0" />
    <path
       class="link"
       d="m -20.122233,0 0,-13 a 2.3907605,2.3907605 0 1 1 4.781521,0 l 0,13"
       x1="-485.4991903623908"
       y1="1377.7601318359375"
       id="path863"
       inkscape:connector-curvature="0"
       style="fill:none;stroke:#ffff00;stroke-width:10;stroke-opacity:0" />
    <path
       class="link"
       d="m -77.500481,0 0,-13 a 89.454283,89.454283 0 1 1 178.908561,0 l 0,13"
       x1="-575.3795781655447"
       y1="1377.7601318359375"
       id="path865"
       inkscape:connector-curvature="0"
       style="fill:none;stroke:#ffff00;stroke-width:10;stroke-opacity:0" />
    <path
       class="link"
       d="m -100.2127,0 0,-13 a 100.81039,100.81039 0 1 1 201.62078,0 l 0,13"
       x1="-610.9572316709598"
       y1="1377.7601318359375"
       id="path867"
       inkscape:connector-curvature="0"
       style="fill:none;stroke:#ffff00;stroke-width:10;stroke-opacity:0" />
    <path
       class="link"
       d="m -77.500481,0 0,-13 A 89.852743,89.852743 0 1 1 102.205,-13 l 0,13"
       x1="-575.3795781655447"
       y1="1377.7601318359375"
       id="path869"
       inkscape:connector-curvature="0"
       style="fill:none;stroke:#ffff00;stroke-width:10;stroke-opacity:0" />
    <path
       class="link"
       d="m -20.122233,0 0,-13 a 18.926853,18.926853 0 1 1 37.853706,0 l 0,13"
       x1="-485.4991903623908"
       y1="1377.7601318359375"
       id="path871"
       inkscape:connector-curvature="0"
       style="fill:none;stroke:#ffff00;stroke-width:10;stroke-opacity:0" />
    <path
       class="link"
       d="m -15.340712,0 0,-13 a 26.497594,26.497594 0 1 1 52.995187,0 l 0,13"
       x1="-478.0091580454613"
       y1="1377.7601318359375"
       id="path873"
       inkscape:connector-curvature="0"
       style="fill:none;stroke:#ffff00;stroke-width:10;stroke-opacity:0" />
    <path
       class="link"
       d="m -36.459095,0 0,-13 a 1.9923003,1.9923003 0 1 1 3.9846,0 l 0,13"
       x1="-511.0901341118999"
       y1="1377.7601318359375"
       id="path875"
       inkscape:connector-curvature="0"
       style="fill:none;stroke:#ffff00;stroke-width:10;stroke-opacity:0" />
    <path
       class="link"
       d="m 17.731473,0 0,-13 a 12.750722,12.750722 0 1 1 25.501443,0 l 0,13"
       x1="-426.203101186699"
       y1="1377.7601318359375"
       id="path877"
       inkscape:connector-curvature="0"
       style="fill:none;stroke:#ffff00;stroke-width:10;stroke-opacity:0" />
    <path
       class="link"
       d="m -100.2127,0 0,-13 a 101.20885,101.20885 0 1 1 202.4177,0 l 0,13"
       x1="-610.9572316709598"
       y1="1377.7601318359375"
       id="path879"
       inkscape:connector-curvature="0"
       style="fill:none;stroke:#ffff00;stroke-width:10;stroke-opacity:0" />
    <path
       class="link"
       d="m -100.2127,0 0,-13 a 101.00962,101.00962 0 1 1 202.01924,0 l 0,13"
       x1="-610.9572316709598"
       y1="1377.7601318359375"
       id="path881"
       inkscape:connector-curvature="0"
       style="fill:none;stroke:#ffff00;stroke-width:10;stroke-opacity:0" />
    <path
       class="link"
       d="m -30.482194,0 0,-13 a 24.106833,24.106833 0 1 1 48.213667,0 l 0,13"
       x1="-501.727593715738"
       y1="1377.7601318359375"
       id="path883"
       inkscape:connector-curvature="0"
       style="fill:none;stroke:#ffff00;stroke-width:10;stroke-opacity:0" />
    <path
       class="link"
       d="m 32.076035,0 0,-13 a 5.5784408,5.5784408 0 1 1 11.156881,0 l 0,13"
       x1="-403.73300423591047"
       y1="1377.7601318359375"
       id="path885"
       inkscape:connector-curvature="0"
       style="fill:none;stroke:#ffff00;stroke-width:10;stroke-opacity:0" />
    <path
       class="link"
       d="m -9.3638114,0 0,-13 a 13.547642,13.547642 0 1 1 27.0952844,0 l 0,13"
       x1="-468.64661764929946"
       y1="1377.7601318359375"
       id="path887"
       inkscape:connector-curvature="0"
       style="fill:none;stroke:#ffff00;stroke-width:10;stroke-opacity:0" />
  </g>
  <g
     class="intraLinks"
     transform="matrix(1,0,0,-1,167.68974,224.63175)"
     id="g889">
    <path
       class="link"
       d="m -77.500481,0 0,-13 a 89.653513,89.653513 0 1 1 179.307021,0 l 0,13"
       x1="-575.3795781655447"
       y1="1377.7601318359375"
       id="path891"
       inkscape:connector-curvature="0"
       style="fill:none;stroke:#8073ac;stroke-width:1.5" />
    <path
       class="link"
       d="m -20.122233,0 0,-13 a 31.677575,31.677575 0 1 1 63.355149,0 l 0,13"
       x1="-485.4991903623908"
       y1="1377.7601318359375"
       id="path893"
       inkscape:connector-curvature="0"
       style="fill:none;stroke:#8073ac;stroke-width:1.5" />
    <path
       class="link"
       d="m -15.340712,0 0,-13 a 23.708373,23.708373 0 1 1 47.416747,0 l 0,13"
       x1="-478.0091580454613"
       y1="1377.7601318359375"
       id="path895"
       inkscape:connector-curvature="0"
       style="fill:none;stroke:#8073ac;stroke-width:1.5" />
    <path
       class="link"
       d="m -53.592878,0 0,-13 a 73.515881,73.515881 0 1 1 147.031762,0 l 0,13"
       x1="-537.9294165808973"
       y1="1377.7601318359375"
       id="path897"
       inkscape:connector-curvature="0"
       style="fill:none;stroke:#8073ac;stroke-width:1.5" />
    <path
       class="link"
       d="m 101.40808,0 0,-13 a 0.39846006,0.39846006 0 1 1 0.79692,0 l 0,13"
       x1="-295.1275356404328"
       y1="1377.7601318359375"
       id="path899"
       inkscape:connector-curvature="0"
       style="fill:none;stroke:#8073ac;stroke-width:1.5" />
    <path
       class="link"
       d="m -27.692974,0 0,-13 a 35.462945,35.462945 0 1 1 70.92589,0 l 0,13"
       x1="-497.3584081975291"
       y1="1377.7601318359375"
       id="path901"
       inkscape:connector-curvature="0"
       style="fill:none;stroke:#8073ac;stroke-width:1.5" />
    <path
       class="link"
       d="m -15.340712,0 0,-13 a 27.095284,27.095284 0 1 1 54.190568,0 l 0,13"
       x1="-478.0091580454613"
       y1="1377.7601318359375"
       id="path903"
       inkscape:connector-curvature="0"
       style="fill:none;stroke:#8073ac;stroke-width:1.5" />
    <path
       class="link"
       d="m -57.577478,0 0,-13 a 75.508181,75.508181 0 1 1 151.016362,0 l 0,13"
       x1="-544.1711101783385"
       y1="1377.7601318359375"
       id="path905"
       inkscape:connector-curvature="0"
       style="fill:none;stroke:#8073ac;stroke-width:1.5" />
    <path
       class="link"
       d="m -20.122233,0 0,-13 a 2.3907605,2.3907605 0 1 1 4.781521,0 l 0,13"
       x1="-485.4991903623908"
       y1="1377.7601318359375"
       id="path907"
       inkscape:connector-curvature="0"
       style="fill:none;stroke:#8073ac;stroke-width:1.5" />
    <path
       class="link"
       d="m -77.500481,0 0,-13 a 89.454283,89.454283 0 1 1 178.908561,0 l 0,13"
       x1="-575.3795781655447"
       y1="1377.7601318359375"
       id="path909"
       inkscape:connector-curvature="0"
       style="fill:none;stroke:#8073ac;stroke-width:1.5" />
    <path
       class="link"
       d="m -100.2127,0 0,-13 a 100.81039,100.81039 0 1 1 201.62078,0 l 0,13"
       x1="-610.9572316709598"
       y1="1377.7601318359375"
       id="path911"
       inkscape:connector-curvature="0"
       style="fill:none;stroke:#8073ac;stroke-width:1.5" />
    <path
       class="link"
       d="m -77.500481,0 0,-13 A 89.852743,89.852743 0 1 1 102.205,-13 l 0,13"
       x1="-575.3795781655447"
       y1="1377.7601318359375"
       id="path913"
       inkscape:connector-curvature="0"
       style="fill:none;stroke:#8073ac;stroke-width:1.5" />
    <path
       class="link"
       d="m -20.122233,0 0,-13 a 18.926853,18.926853 0 1 1 37.853706,0 l 0,13"
       x1="-485.4991903623908"
       y1="1377.7601318359375"
       id="path915"
       inkscape:connector-curvature="0"
       style="fill:none;stroke:#8073ac;stroke-width:1.5" />
    <path
       class="link"
       d="m -15.340712,0 0,-13 a 26.497594,26.497594 0 1 1 52.995187,0 l 0,13"
       x1="-478.0091580454613"
       y1="1377.7601318359375"
       id="path917"
       inkscape:connector-curvature="0"
       style="fill:none;stroke:#8073ac;stroke-width:1.5" />
    <path
       class="link"
       d="m -36.459095,0 0,-13 a 1.9923003,1.9923003 0 1 1 3.9846,0 l 0,13"
       x1="-511.0901341118999"
       y1="1377.7601318359375"
       id="path919"
       inkscape:connector-curvature="0"
       style="fill:none;stroke:#8073ac;stroke-width:1.5" />
    <path
       class="link"
       d="m 17.731473,0 0,-13 a 12.750722,12.750722 0 1 1 25.501443,0 l 0,13"
       x1="-426.203101186699"
       y1="1377.7601318359375"
       id="path921"
       inkscape:connector-curvature="0"
       style="fill:none;stroke:#8073ac;stroke-width:1.5" />
    <path
       class="link"
       d="m -100.2127,0 0,-13 a 101.20885,101.20885 0 1 1 202.4177,0 l 0,13"
       x1="-610.9572316709598"
       y1="1377.7601318359375"
       id="path923"
       inkscape:connector-curvature="0"
       style="fill:none;stroke:#8073ac;stroke-width:1.5" />
    <path
       class="link"
       d="m -100.2127,0 0,-13 a 101.00962,101.00962 0 1 1 202.01924,0 l 0,13"
       x1="-610.9572316709598"
       y1="1377.7601318359375"
       id="path925"
       inkscape:connector-curvature="0"
       style="fill:none;stroke:#8073ac;stroke-width:1.5" />
    <path
       class="link"
       d="m -30.482194,0 0,-13 a 24.106833,24.106833 0 1 1 48.213667,0 l 0,13"
       x1="-501.727593715738"
       y1="1377.7601318359375"
       id="path927"
       inkscape:connector-curvature="0"
       style="fill:none;stroke:#8073ac;stroke-width:1.5" />
    <path
       class="link"
       d="m 32.076035,0 0,-13 a 5.5784408,5.5784408 0 1 1 11.156881,0 l 0,13"
       x1="-403.73300423591047"
       y1="1377.7601318359375"
       id="path929"
       inkscape:connector-curvature="0"
       style="fill:none;stroke:#8073ac;stroke-width:1.5" />
    <path
       class="link"
       d="m -9.3638114,0 0,-13 a 13.547642,13.547642 0 1 1 27.0952844,0 l 0,13"
       x1="-468.64661764929946"
       y1="1377.7601318359375"
       id="path931"
       inkscape:connector-curvature="0"
       style="fill:none;stroke:#8073ac;stroke-width:1.5" />
  </g>
  <g
     class="protein"
     transform="matrix(4.5,0,0,1,167.68974,224.63175)"
     id="g933">
    <rect
       class="protein"
       x="-5.5341673"
       y="-10"
       width="14.875842"
       height="20"
       id="rect935"
       style="fill:#fdd0a2;fill-opacity:0" />
    <rect
       class="protein"
       x="-22.889317"
       y="-10"
       width="11.511068"
       height="20"
       id="rect937"
       style="fill:#31a354;fill-opacity:0" />
    <rect
       class="protein"
       x="11.643888"
       y="-10"
       width="10.714149"
       height="20"
       id="rect939"
       style="fill:#31a354;fill-opacity:0" />
    <rect
       class="protein"
       x="-11.466795"
       y="-10"
       width="6.375361"
       height="20"
       id="rect941"
       style="fill:#74c476;fill-opacity:0" />
    <rect
       class="protein"
       x="8.4562082"
       y="-10"
       width="3.1876805"
       height="20"
       id="rect943"
       style="fill:#74c476;fill-opacity:0" />
  </g>
  <g
     transform="translate(45.109375,224.63175)"
     id="g945">
    <circle
       r="14"
       id="circle947"
       d="M 14,0 C 14,7.7319865 7.7319865,14 0,14 -7.7319865,14 -14,7.7319865 -14,0 c 0,-7.7319865 6.2680135,-14 14,-14 7.7319865,0 14,6.2680135 14,14 z"
       cx="0"
       cy="0"
       sodipodi:cx="0"
       sodipodi:cy="0"
       sodipodi:rx="14"
       sodipodi:ry="14"
       style="fill:#808080;fill-opacity:0;stroke:none" />
  </g>
  <g
     transform="translate(290.27011,224.63175)"
     id="g949">
    <circle
       r="14"
       id="circle951"
       d="M 14,0 C 14,7.7319865 7.7319865,14 0,14 -7.7319865,14 -14,7.7319865 -14,0 c 0,-7.7319865 6.2680135,-14 14,-14 7.7319865,0 14,6.2680135 14,14 z"
       cx="0"
       cy="0"
       sodipodi:cx="0"
       sodipodi:cy="0"
       sodipodi:rx="14"
       sodipodi:ry="14"
       style="fill:#808080;fill-opacity:0;stroke:none" />
  </g>
  <g
     class="rectAndTicks"
     id="g805"
     transform="translate(167.68974,224.63175)">
    <rect
       x="-108.58037"
       y="-10"
       width="217.16074"
       height="20"
       id="rect807"
       style="fill:none;stroke:#000000;stroke-width:0.75" />
    <g
       class="rect"
       transform="scale(4.5,1)"
       id="g809">
      <rect
         class="pBackground Xlr_protein"
         x="-24.128971"
         y="-10"
         width="48.257942"
         height="20"
         id="rect811"
         style="fill-opacity:0;stroke:none" />
    </g>
    <g
       id="g813">
      <line
         x1="-108.18191"
         y1="-7.5"
         x2="-108.18191"
         y2="7.5"
         id="line815"
         style="stroke:#000000" />
      <g
         transform="translate(-108.18191,0)"
         id="g817">
        <text
           class="Xlr_proteinScaleLabelText"
           font-size="14"
           x="0"
           y="23"
           id="text819"
           style="font-size:14px;text-anchor:middle;font-family:Arial">1</text>
      </g>
      <line
         x1="-68.73436"
         y1="-7.5"
         x2="-68.73436"
         y2="7.5"
         id="line821"
         style="stroke:#000000" />
      <line
         x1="-28.888353"
         y1="-7.5"
         x2="-28.888353"
         y2="7.5"
         id="line823"
         style="stroke:#000000" />
      <g
         transform="translate(-28.888354,0)"
         id="g825">
        <text
           class="Xlr_proteinScaleLabelText"
           font-size="14"
           x="0"
           y="23"
           id="text827"
           style="font-size:14px;text-anchor:middle;font-family:Arial">200</text>
      </g>
      <line
         x1="10.957651"
         y1="-7.5"
         x2="10.957651"
         y2="7.5"
         id="line829"
         style="stroke:#000000" />
      <line
         x1="50.803658"
         y1="-7.5"
         x2="50.803658"
         y2="7.5"
         id="line831"
         style="stroke:#000000" />
      <g
         transform="translate(50.803657,0)"
         id="g833">
        <text
           class="Xlr_proteinScaleLabelText"
           font-size="14"
           x="0"
           y="23"
           id="text835"
           style="font-size:14px;text-anchor:middle;font-family:Arial">400</text>
      </g>
      <line
         x1="90.649666"
         y1="-7.5"
         x2="90.649666"
         y2="7.5"
         id="line837"
         style="stroke:#000000" />
      <g
         transform="translate(108.58037,0)"
         id="g839">
        <text
           class="Xlr_proteinScaleLabelText"
           font-size="14"
           x="0"
           y="23"
           id="text841"
           style="font-size:14px;text-anchor:middle;font-family:Arial">545</text>
      </g>
      <line
         x1="108.58037"
         y1="-7.5"
         x2="108.58037"
         y2="7.5"
         id="line843"
         style="stroke:#000000" />
    </g>
  </g>
</svg>
