<?xml version="1.0" encoding="UTF-8" standalone="no"?>
<svg
   xmlns:dc="http://purl.org/dc/elements/1.1/"
   xmlns:cc="http://creativecommons.org/ns#"
   xmlns:rdf="http://www.w3.org/1999/02/22-rdf-syntax-ns#"
   xmlns:svg="http://www.w3.org/2000/svg"
   xmlns="http://www.w3.org/2000/svg"
   xmlns:sodipodi="http://sodipodi.sourceforge.net/DTD/sodipodi-0.dtd"
   xmlns:inkscape="http://www.inkscape.org/namespaces/inkscape"
   id="networkSVG"
   class="Xlv"
   width="309.27011"
   height="247.94881"
   style="display:block"
   version="1.1"
   inkscape:version="0.48.3.1 r9886"
   sodipodi:docname="aggsvg.svg"
   inkscape:export-filename="/var/www/xiNET_web/img/aggsvg2.png"
   inkscape:export-xdpi="111.4343"
   inkscape:export-ydpi="111.4343">
  <metadata
     id="metadata2022">
    <rdf:RDF>
      <cc:Work
         rdf:about="">
        <dc:format>image/svg+xml</dc:format>
        <dc:type
           rdf:resource="http://purl.org/dc/dcmitype/StillImage" />
        <dc:title></dc:title>
      </cc:Work>
    </rdf:RDF>
  </metadata>
  <defs
     id="defs2020" />
  <sodipodi:namedview
     pagecolor="#ffffff"
     bordercolor="#666666"
     borderopacity="1"
     objecttolerance="10"
     gridtolerance="10"
     guidetolerance="10"
     inkscape:pageopacity="0"
     inkscape:pageshadow="2"
     inkscape:window-width="1280"
     inkscape:window-height="937"
     id="namedview2018"
     showgrid="false"
     fit-margin-top="5"
     fit-margin-left="5"
     fit-margin-right="5"
     fit-margin-bottom="5"
     inkscape:zoom="1"
     inkscape:cx="53.65535"
     inkscape:cy="24.027772"
     inkscape:window-x="0"
     inkscape:window-y="27"
     inkscape:window-maximized="1"
     inkscape:current-layer="networkSVG" />
  <path
     d="m 160.68974,29.739941 q 1.74319,-19.9247596 6.8407,-18.79467 a 20.000867,20.000867 0 0 1 11.95397,11.95397 q 1.13009,5.09751 -18.79467,6.8407"
     class="link"
     x1="425"
     y1="621"
     id="path257"
     inkscape:connector-curvature="0"
     style="fill:none;stroke:#d3d3d3;stroke-width:11.76923084;stroke-linecap:round;stroke-linejoin:round" />
  <rect
     style="fill:none;stroke:#ffa500;stroke-width:10;stroke-opacity:0"
     id="rect262"
     height="20"
     width="217.16074"
     y="113.73995"
     x="59.109379" />
  <g
     id="g264"
     transform="matrix(4.5,0,0,1,167.68974,123.73995)"
     class="protein">
    <rect
       style="fill:#fdd0a2;fill-opacity:0.85"
       id="rect266"
       height="20"
       width="14.875842"
       y="-10"
       x="-5.5341673"
       class="protein" />
    <rect
       style="fill:#31a354;fill-opacity:0.85"
       id="rect268"
       height="20"
       width="11.511068"
       y="-10"
       x="-22.889317"
       class="protein" />
    <rect
       style="fill:#31a354;fill-opacity:0.85"
       id="rect270"
       height="20"
       width="10.714149"
       y="-10"
       x="11.643888"
       class="protein" />
    <rect
       style="fill:#74c476;fill-opacity:0.85"
       id="rect272"
       height="20"
       width="6.375361"
       y="-10"
       x="-11.466795"
       class="protein" />
    <rect
       style="fill:#74c476;fill-opacity:0.85"
       id="rect274"
       height="20"
       width="3.1876805"
       y="-10"
       x="8.4562082"
       class="protein" />
  </g>
  <line
     class="link"
     x1="160.68976"
     y1="29.739962"
     x2="269.89474"
     y2="123.73996"
     id="line412"
     style="fill:none;stroke:#ffff00;stroke-width:10;stroke-linecap:round;stroke-opacity:0" />
  <line
     class="link"
     x1="160.68976"
     y1="29.739962"
     x2="269.09787"
     y2="123.73996"
     id="line414"
     style="fill:none;stroke:#ffff00;stroke-width:10;stroke-linecap:round;stroke-opacity:0" />
  <line
     class="link"
     x1="160.68976"
     y1="29.739962"
     x2="67.477051"
     y2="123.73996"
     id="line416"
     style="fill:none;stroke:#ffff00;stroke-width:10;stroke-linecap:round;stroke-opacity:0" />
  <line
     class="link"
     x1="160.68976"
     y1="29.739962"
     x2="124.05837"
     y2="123.73996"
     id="line418"
     style="fill:none;stroke:#ffff00;stroke-width:10;stroke-linecap:round;stroke-opacity:0" />
  <line
     class="link"
     x1="160.68976"
     y1="29.739962"
     x2="210.9227"
     y2="123.73996"
     id="line420"
     style="fill:none;stroke:#ffff00;stroke-width:10;stroke-linecap:round;stroke-opacity:0" />
  <line
     class="link"
     x1="160.68976"
     y1="29.739962"
     x2="76.641624"
     y2="123.73996"
     id="line422"
     style="fill:none;stroke:#ffff00;stroke-width:10;stroke-linecap:round;stroke-opacity:0" />
  <line
     class="link"
     x1="160.68976"
     y1="29.739962"
     x2="90.189262"
     y2="123.73996"
     id="line424"
     style="fill:none;stroke:#ffff00;stroke-width:10;stroke-linecap:round;stroke-opacity:0" />
  <line
     class="link"
     x1="160.68976"
     y1="29.739962"
     x2="90.189262"
     y2="123.73996"
     id="line426"
     style="fill:none;stroke:#ffff00;stroke-width:10;stroke-linecap:round;stroke-opacity:0" />
  <line
     class="link"
     x1="160.68976"
     y1="29.739962"
     x2="67.477051"
     y2="123.73996"
     id="line428"
     style="fill:none;stroke:#ffff00;stroke-width:10;stroke-linecap:round;stroke-opacity:0" />
  <line
     class="link"
     x1="160.68976"
     y1="29.739962"
     x2="139.9968"
     y2="123.73996"
     id="line430"
     style="fill:none;stroke:#ffff00;stroke-width:10;stroke-linecap:round;stroke-opacity:0" />
  <line
     class="link"
     x1="160.68976"
     y1="29.739962"
     x2="269.89474"
     y2="123.73996"
     id="line568"
     style="fill:none;stroke:#e08214;stroke-width:1.50000012;stroke-linecap:round" />
  <line
     class="link"
     x1="160.68976"
     y1="29.739962"
     x2="269.09787"
     y2="123.73996"
     id="line570"
     style="fill:none;stroke:#e08214;stroke-width:1.50000012;stroke-linecap:round" />
  <line
     class="link"
     x1="160.68976"
     y1="29.739962"
     x2="67.477051"
     y2="123.73996"
     id="line572"
     style="fill:none;stroke:#e08214;stroke-width:1.50000012;stroke-linecap:round" />
  <line
     class="link"
     x1="160.68976"
     y1="29.739962"
     x2="124.05837"
     y2="123.73996"
     id="line574"
     style="fill:none;stroke:#e08214;stroke-width:1.50000012;stroke-linecap:round" />
  <line
     class="link"
     x1="160.68976"
     y1="29.739962"
     x2="210.9227"
     y2="123.73996"
     id="line576"
     style="fill:none;stroke:#e08214;stroke-width:1.50000012;stroke-linecap:round" />
  <line
     class="link"
     x1="160.68976"
     y1="29.739962"
     x2="76.641624"
     y2="123.73996"
     id="line578"
     style="fill:none;stroke:#e08214;stroke-width:1.50000012;stroke-linecap:round" />
  <line
     class="link"
     x1="160.68976"
     y1="29.739962"
     x2="90.189262"
     y2="123.73996"
     id="line580"
     style="fill:none;stroke:#e08214;stroke-width:1.50000012;stroke-linecap:round" />
  <line
     class="link"
     x1="160.68976"
     y1="29.739962"
     x2="90.189262"
     y2="123.73996"
     id="line582"
     style="fill:none;stroke:#e08214;stroke-width:1.50000012;stroke-linecap:round" />
  <line
     class="link"
     x1="160.68976"
     y1="29.739962"
     x2="67.477051"
     y2="123.73996"
     id="line584"
     style="fill:none;stroke:#e08214;stroke-width:1.50000012;stroke-linecap:round" />
  <line
     class="link"
     x1="160.68976"
     y1="29.739962"
     x2="139.9968"
     y2="123.73996"
     id="line586"
     style="fill:none;stroke:#e08214;stroke-width:1.50000012;stroke-linecap:round" />
  <g
     class="protein"
     transform="translate(160.68974,29.739941)"
     id="g641">
    <text
       x="0"
       y="10"
       font-size="16"
       class="xlv_text"
       transform="translate(-18.000867,-5)"
       id="text643"
       style="font-size:16px;text-anchor:end;font-family:Arial">TCPZ</text>
    <circle
       cx="0"
       cy="0"
       r="13.000867"
       id="circle645"
       d="M 13.000867,0 C 13.000867,7.1801805 7.1801805,13.000867 0,13.000867 -7.1801805,13.000867 -13.000867,7.1801805 -13.000867,0 c 0,-7.1801805 5.8206865,-13.000867 13.000867,-13.000867 7.1801805,0 13.000867,5.8206865 13.000867,13.000867 z"
       sodipodi:cx="0"
       sodipodi:cy="0"
       sodipodi:rx="13.000867"
       sodipodi:ry="13.000867"
       style="stroke:#ffa500;stroke-width:10;stroke-opacity:0" />
    <path
       d="M 0,0 Q 1.7431904,-19.924758 6.8406995,-18.794667 A 20.000867,20.000867 0 0 1 18.794667,-6.8406995 Q 19.924758,-1.7431904 0,0"
       class="link"
       x1="425"
       y1="621"
       id="path647"
       inkscape:connector-curvature="0"
       style="fill:none;stroke:#ffff00;stroke-width:10;stroke-linecap:round;stroke-opacity:0" />
    <path
       d="M 0,0 Q 1.7431904,-19.924758 6.8406995,-18.794667 A 20.000867,20.000867 0 0 1 18.794667,-6.8406995 Q 19.924758,-1.7431904 0,0"
       class="link"
       x1="425"
       y1="621"
       id="path649"
       inkscape:connector-curvature="0"
       style="fill:none;stroke:#000000;stroke-width:1;stroke-linecap:round" />
    <circle
       cx="0"
       cy="0"
       r="13.000867"
       id="circle651"
       d="M 13.000867,0 C 13.000867,7.1801805 7.1801805,13.000867 0,13.000867 -7.1801805,13.000867 -13.000867,7.1801805 -13.000867,0 c 0,-7.1801805 5.8206865,-13.000867 13.000867,-13.000867 7.1801805,0 13.000867,5.8206865 13.000867,13.000867 z"
       sodipodi:cx="0"
       sodipodi:cy="0"
       sodipodi:rx="13.000867"
       sodipodi:ry="13.000867"
       style="fill:#ffffff;fill-opacity:1;stroke:#000000;stroke-width:1" />
    <g
       class="protein"
       id="g653">
      <path
         class="protein"
         d="M 0,0 7.5097105,8.0388636 A 11.000867,11.000867 0 0 1 -10.686571,2.6107995 z"
         id="path655"
         inkscape:connector-curvature="0"
         style="fill:#fdd0a2;fill-opacity:0.85;stroke:none" />
      <path
         class="protein"
         d="M 0,0 1.4278349,-10.907812 A 11.000867,11.000867 0 0 1 10.948491,1.072201 z"
         id="path657"
         inkscape:connector-curvature="0"
         style="fill:#31a354;fill-opacity:0.85;stroke:none" />
      <path
         class="protein"
         d="M 0,0 -10.975414,-0.74790251 A 11.000867,11.000867 0 0 1 -1.0398087,-10.951615 z"
         id="path659"
         inkscape:connector-curvature="0"
         style="fill:#31a354;fill-opacity:0.85;stroke:none" />
      <path
         class="protein"
         d="M 0,0 10.935038,1.2016736 A 11.000867,11.000867 0 0 1 7.0212395,8.4688415 z"
         id="path661"
         inkscape:connector-curvature="0"
         style="fill:#74c476;fill-opacity:0.85;stroke:none" />
      <path
         class="protein"
         d="m 0,0 -10.257312,3.9757566 a 11.000867,11.000867 0 0 1 -0.718102,-4.72365911 z"
         id="path663"
         inkscape:connector-curvature="0"
         style="fill:#74c476;fill-opacity:0.85;stroke:none" />
    </g>
  </g>
  <text
     style="font-size:16px;text-anchor:end;font-family:Arial"
     id="text673"
     class="xlv_text"
     font-size="16"
     y="128.73996"
     x="49.109375">TCPG</text>
  <g
     class="highlights"
     transform="matrix(1,0,0,-1,167.68974,123.73995)"
     id="g717">
    <path
       class="link"
       d="m -77.500481,0 0,-13 a 89.653513,89.653513 0 1 1 179.307021,0 l 0,13"
       x1="-575.3795781655447"
       y1="1377.7601318359375"
       id="path719"
       inkscape:connector-curvature="0"
       style="fill:none;stroke:#ffff00;stroke-width:10;stroke-opacity:0" />
    <path
       class="link"
       d="m -20.122233,0 0,-13 a 31.677575,31.677575 0 1 1 63.355149,0 l 0,13"
       x1="-485.4991903623908"
       y1="1377.7601318359375"
       id="path721"
       inkscape:connector-curvature="0"
       style="fill:none;stroke:#ffff00;stroke-width:10;stroke-opacity:0" />
    <path
       class="link"
       d="m -15.340712,0 0,-13 a 23.708373,23.708373 0 1 1 47.416747,0 l 0,13"
       x1="-478.0091580454613"
       y1="1377.7601318359375"
       id="path723"
       inkscape:connector-curvature="0"
       style="fill:none;stroke:#ffff00;stroke-width:10;stroke-opacity:0" />
    <path
       class="link"
       d="m -53.592878,0 0,-13 a 73.515881,73.515881 0 1 1 147.031762,0 l 0,13"
       x1="-537.9294165808973"
       y1="1377.7601318359375"
       id="path725"
       inkscape:connector-curvature="0"
       style="fill:none;stroke:#ffff00;stroke-width:10;stroke-opacity:0" />
    <path
       class="link"
       d="m 101.40808,0 0,-13 a 0.39846006,0.39846006 0 1 1 0.79692,0 l 0,13"
       x1="-295.1275356404328"
       y1="1377.7601318359375"
       id="path727"
       inkscape:connector-curvature="0"
       style="fill:none;stroke:#ffff00;stroke-width:10;stroke-opacity:0" />
    <path
       class="link"
       d="m -27.692974,0 0,-13 a 35.462945,35.462945 0 1 1 70.92589,0 l 0,13"
       x1="-497.3584081975291"
       y1="1377.7601318359375"
       id="path729"
       inkscape:connector-curvature="0"
       style="fill:none;stroke:#ffff00;stroke-width:10;stroke-opacity:0" />
    <path
       class="link"
       d="m -15.340712,0 0,-13 a 27.095284,27.095284 0 1 1 54.190568,0 l 0,13"
       x1="-478.0091580454613"
       y1="1377.7601318359375"
       id="path731"
       inkscape:connector-curvature="0"
       style="fill:none;stroke:#ffff00;stroke-width:10;stroke-opacity:0" />
    <path
       class="link"
       d="m -57.577478,0 0,-13 a 75.508181,75.508181 0 1 1 151.016362,0 l 0,13"
       x1="-544.1711101783385"
       y1="1377.7601318359375"
       id="path733"
       inkscape:connector-curvature="0"
       style="fill:none;stroke:#ffff00;stroke-width:10;stroke-opacity:0" />
    <path
       class="link"
       d="m -20.122233,0 0,-13 a 2.3907605,2.3907605 0 1 1 4.781521,0 l 0,13"
       x1="-485.4991903623908"
       y1="1377.7601318359375"
       id="path735"
       inkscape:connector-curvature="0"
       style="fill:none;stroke:#ffff00;stroke-width:10;stroke-opacity:0" />
    <path
       class="link"
       d="m -77.500481,0 0,-13 a 89.454283,89.454283 0 1 1 178.908561,0 l 0,13"
       x1="-575.3795781655447"
       y1="1377.7601318359375"
       id="path737"
       inkscape:connector-curvature="0"
       style="fill:none;stroke:#ffff00;stroke-width:10;stroke-opacity:0" />
    <path
       class="link"
       d="m -100.2127,0 0,-13 a 100.81039,100.81039 0 1 1 201.62078,0 l 0,13"
       x1="-610.9572316709598"
       y1="1377.7601318359375"
       id="path739"
       inkscape:connector-curvature="0"
       style="fill:none;stroke:#ffff00;stroke-width:10;stroke-opacity:0" />
    <path
       class="link"
       d="m -77.500481,0 0,-13 A 89.852743,89.852743 0 1 1 102.205,-13 l 0,13"
       x1="-575.3795781655447"
       y1="1377.7601318359375"
       id="path741"
       inkscape:connector-curvature="0"
       style="fill:none;stroke:#ffff00;stroke-width:10;stroke-opacity:0" />
    <path
       class="link"
       d="m -20.122233,0 0,-13 a 18.926853,18.926853 0 1 1 37.853706,0 l 0,13"
       x1="-485.4991903623908"
       y1="1377.7601318359375"
       id="path743"
       inkscape:connector-curvature="0"
       style="fill:none;stroke:#ffff00;stroke-width:10;stroke-opacity:0" />
    <path
       class="link"
       d="m -15.340712,0 0,-13 a 26.497594,26.497594 0 1 1 52.995187,0 l 0,13"
       x1="-478.0091580454613"
       y1="1377.7601318359375"
       id="path745"
       inkscape:connector-curvature="0"
       style="fill:none;stroke:#ffff00;stroke-width:10;stroke-opacity:0" />
    <path
       class="link"
       d="m -36.459095,0 0,-13 a 1.9923003,1.9923003 0 1 1 3.9846,0 l 0,13"
       x1="-511.0901341118999"
       y1="1377.7601318359375"
       id="path747"
       inkscape:connector-curvature="0"
       style="fill:none;stroke:#ffff00;stroke-width:10;stroke-opacity:0" />
    <path
       class="link"
       d="m 17.731473,0 0,-13 a 12.750722,12.750722 0 1 1 25.501443,0 l 0,13"
       x1="-426.203101186699"
       y1="1377.7601318359375"
       id="path749"
       inkscape:connector-curvature="0"
       style="fill:none;stroke:#ffff00;stroke-width:10;stroke-opacity:0" />
    <path
       class="link"
       d="m -100.2127,0 0,-13 a 101.20885,101.20885 0 1 1 202.4177,0 l 0,13"
       x1="-610.9572316709598"
       y1="1377.7601318359375"
       id="path751"
       inkscape:connector-curvature="0"
       style="fill:none;stroke:#ffff00;stroke-width:10;stroke-opacity:0" />
    <path
       class="link"
       d="m -100.2127,0 0,-13 a 101.00962,101.00962 0 1 1 202.01924,0 l 0,13"
       x1="-610.9572316709598"
       y1="1377.7601318359375"
       id="path753"
       inkscape:connector-curvature="0"
       style="fill:none;stroke:#ffff00;stroke-width:10;stroke-opacity:0" />
    <path
       class="link"
       d="m -30.482194,0 0,-13 a 24.106833,24.106833 0 1 1 48.213667,0 l 0,13"
       x1="-501.727593715738"
       y1="1377.7601318359375"
       id="path755"
       inkscape:connector-curvature="0"
       style="fill:none;stroke:#ffff00;stroke-width:10;stroke-opacity:0" />
    <path
       class="link"
       d="m 32.076035,0 0,-13 a 5.5784408,5.5784408 0 1 1 11.156881,0 l 0,13"
       x1="-403.73300423591047"
       y1="1377.7601318359375"
       id="path757"
       inkscape:connector-curvature="0"
       style="fill:none;stroke:#ffff00;stroke-width:10;stroke-opacity:0" />
    <path
       class="link"
       d="m -9.3638114,0 0,-13 a 13.547642,13.547642 0 1 1 27.0952844,0 l 0,13"
       x1="-468.64661764929946"
       y1="1377.7601318359375"
       id="path759"
       inkscape:connector-curvature="0"
       style="fill:none;stroke:#ffff00;stroke-width:10;stroke-opacity:0" />
  </g>
  <g
     class="intraLinks"
     transform="matrix(1,0,0,-1,167.68974,123.73995)"
     id="g761">
    <path
       class="link"
       d="m -77.500481,0 0,-13 a 89.653513,89.653513 0 1 1 179.307021,0 l 0,13"
       x1="-575.3795781655447"
       y1="1377.7601318359375"
       id="path763"
       inkscape:connector-curvature="0"
       style="fill:none;stroke:#8073ac;stroke-width:1.5" />
    <path
       class="link"
       d="m -20.122233,0 0,-13 a 31.677575,31.677575 0 1 1 63.355149,0 l 0,13"
       x1="-485.4991903623908"
       y1="1377.7601318359375"
       id="path765"
       inkscape:connector-curvature="0"
       style="fill:none;stroke:#8073ac;stroke-width:1.5" />
    <path
       class="link"
       d="m -15.340712,0 0,-13 a 23.708373,23.708373 0 1 1 47.416747,0 l 0,13"
       x1="-478.0091580454613"
       y1="1377.7601318359375"
       id="path767"
       inkscape:connector-curvature="0"
       style="fill:none;stroke:#8073ac;stroke-width:1.5" />
    <path
       class="link"
       d="m -53.592878,0 0,-13 a 73.515881,73.515881 0 1 1 147.031762,0 l 0,13"
       x1="-537.9294165808973"
       y1="1377.7601318359375"
       id="path769"
       inkscape:connector-curvature="0"
       style="fill:none;stroke:#8073ac;stroke-width:1.5" />
    <path
       class="link"
       d="m 101.40808,0 0,-13 a 0.39846006,0.39846006 0 1 1 0.79692,0 l 0,13"
       x1="-295.1275356404328"
       y1="1377.7601318359375"
       id="path771"
       inkscape:connector-curvature="0"
       style="fill:none;stroke:#8073ac;stroke-width:1.5" />
    <path
       class="link"
       d="m -27.692974,0 0,-13 a 35.462945,35.462945 0 1 1 70.92589,0 l 0,13"
       x1="-497.3584081975291"
       y1="1377.7601318359375"
       id="path773"
       inkscape:connector-curvature="0"
       style="fill:none;stroke:#8073ac;stroke-width:1.5" />
    <path
       class="link"
       d="m -15.340712,0 0,-13 a 27.095284,27.095284 0 1 1 54.190568,0 l 0,13"
       x1="-478.0091580454613"
       y1="1377.7601318359375"
       id="path775"
       inkscape:connector-curvature="0"
       style="fill:none;stroke:#8073ac;stroke-width:1.5" />
    <path
       class="link"
       d="m -57.577478,0 0,-13 a 75.508181,75.508181 0 1 1 151.016362,0 l 0,13"
       x1="-544.1711101783385"
       y1="1377.7601318359375"
       id="path777"
       inkscape:connector-curvature="0"
       style="fill:none;stroke:#8073ac;stroke-width:1.5" />
    <path
       class="link"
       d="m -20.122233,0 0,-13 a 2.3907605,2.3907605 0 1 1 4.781521,0 l 0,13"
       x1="-485.4991903623908"
       y1="1377.7601318359375"
       id="path779"
       inkscape:connector-curvature="0"
       style="fill:none;stroke:#8073ac;stroke-width:1.5" />
    <path
       class="link"
       d="m -77.500481,0 0,-13 a 89.454283,89.454283 0 1 1 178.908561,0 l 0,13"
       x1="-575.3795781655447"
       y1="1377.7601318359375"
       id="path781"
       inkscape:connector-curvature="0"
       style="fill:none;stroke:#8073ac;stroke-width:1.5" />
    <path
       class="link"
       d="m -100.2127,0 0,-13 a 100.81039,100.81039 0 1 1 201.62078,0 l 0,13"
       x1="-610.9572316709598"
       y1="1377.7601318359375"
       id="path783"
       inkscape:connector-curvature="0"
       style="fill:none;stroke:#8073ac;stroke-width:1.5" />
    <path
       class="link"
       d="m -77.500481,0 0,-13 A 89.852743,89.852743 0 1 1 102.205,-13 l 0,13"
       x1="-575.3795781655447"
       y1="1377.7601318359375"
       id="path785"
       inkscape:connector-curvature="0"
       style="fill:none;stroke:#8073ac;stroke-width:1.5" />
    <path
       class="link"
       d="m -20.122233,0 0,-13 a 18.926853,18.926853 0 1 1 37.853706,0 l 0,13"
       x1="-485.4991903623908"
       y1="1377.7601318359375"
       id="path787"
       inkscape:connector-curvature="0"
       style="fill:none;stroke:#8073ac;stroke-width:1.5" />
    <path
       class="link"
       d="m -15.340712,0 0,-13 a 26.497594,26.497594 0 1 1 52.995187,0 l 0,13"
       x1="-478.0091580454613"
       y1="1377.7601318359375"
       id="path789"
       inkscape:connector-curvature="0"
       style="fill:none;stroke:#8073ac;stroke-width:1.5" />
    <path
       class="link"
       d="m -36.459095,0 0,-13 a 1.9923003,1.9923003 0 1 1 3.9846,0 l 0,13"
       x1="-511.0901341118999"
       y1="1377.7601318359375"
       id="path791"
       inkscape:connector-curvature="0"
       style="fill:none;stroke:#8073ac;stroke-width:1.5" />
    <path
       class="link"
       d="m 17.731473,0 0,-13 a 12.750722,12.750722 0 1 1 25.501443,0 l 0,13"
       x1="-426.203101186699"
       y1="1377.7601318359375"
       id="path793"
       inkscape:connector-curvature="0"
       style="fill:none;stroke:#8073ac;stroke-width:1.5" />
    <path
       class="link"
       d="m -100.2127,0 0,-13 a 101.20885,101.20885 0 1 1 202.4177,0 l 0,13"
       x1="-610.9572316709598"
       y1="1377.7601318359375"
       id="path795"
       inkscape:connector-curvature="0"
       style="fill:none;stroke:#8073ac;stroke-width:1.5" />
    <path
       class="link"
       d="m -100.2127,0 0,-13 a 101.00962,101.00962 0 1 1 202.01924,0 l 0,13"
       x1="-610.9572316709598"
       y1="1377.7601318359375"
       id="path797"
       inkscape:connector-curvature="0"
       style="fill:none;stroke:#8073ac;stroke-width:1.5" />
    <path
       class="link"
       d="m -30.482194,0 0,-13 a 24.106833,24.106833 0 1 1 48.213667,0 l 0,13"
       x1="-501.727593715738"
       y1="1377.7601318359375"
       id="path799"
       inkscape:connector-curvature="0"
       style="fill:none;stroke:#8073ac;stroke-width:1.5" />
    <path
       class="link"
       d="m 32.076035,0 0,-13 a 5.5784408,5.5784408 0 1 1 11.156881,0 l 0,13"
       x1="-403.73300423591047"
       y1="1377.7601318359375"
       id="path801"
       inkscape:connector-curvature="0"
       style="fill:none;stroke:#8073ac;stroke-width:1.5" />
    <path
       class="link"
       d="m -9.3638114,0 0,-13 a 13.547642,13.547642 0 1 1 27.0952844,0 l 0,13"
       x1="-468.64661764929946"
       y1="1377.7601318359375"
       id="path803"
       inkscape:connector-curvature="0"
       style="fill:none;stroke:#8073ac;stroke-width:1.5" />
  </g>
  <g
     class="protein"
     transform="matrix(4.5,0,0,1,167.68974,123.73995)"
     id="g805">
    <rect
       class="protein"
       x="-5.5341673"
       y="-10"
       width="14.875842"
       height="20"
       id="rect807"
       style="fill:#fdd0a2;fill-opacity:0" />
    <rect
       class="protein"
       x="-22.889317"
       y="-10"
       width="11.511068"
       height="20"
       id="rect809"
       style="fill:#31a354;fill-opacity:0" />
    <rect
       class="protein"
       x="11.643888"
       y="-10"
       width="10.714149"
       height="20"
       id="rect811"
       style="fill:#31a354;fill-opacity:0" />
    <rect
       class="protein"
       x="-11.466795"
       y="-10"
       width="6.375361"
       height="20"
       id="rect813"
       style="fill:#74c476;fill-opacity:0" />
    <rect
       class="protein"
       x="8.4562082"
       y="-10"
       width="3.1876805"
       height="20"
       id="rect815"
       style="fill:#74c476;fill-opacity:0" />
  </g>
  <g
     transform="translate(45.109375,123.73995)"
     id="g817">
    <circle
       r="14"
       id="circle819"
       d="M 14,0 C 14,7.7319865 7.7319865,14 0,14 -7.7319865,14 -14,7.7319865 -14,0 c 0,-7.7319865 6.2680135,-14 14,-14 7.7319865,0 14,6.2680135 14,14 z"
       cx="0"
       cy="0"
       sodipodi:cx="0"
       sodipodi:cy="0"
       sodipodi:rx="14"
       sodipodi:ry="14"
       style="fill:#808080;fill-opacity:0;stroke:none" />
  </g>
  <g
     transform="translate(290.27011,123.73995)"
     id="g821">
    <circle
       r="14"
       id="circle823"
       d="M 14,0 C 14,7.7319865 7.7319865,14 0,14 -7.7319865,14 -14,7.7319865 -14,0 c 0,-7.7319865 6.2680135,-14 14,-14 7.7319865,0 14,6.2680135 14,14 z"
       cx="0"
       cy="0"
       sodipodi:cx="0"
       sodipodi:cy="0"
       sodipodi:rx="14"
       sodipodi:ry="14"
       style="fill:#808080;fill-opacity:0;stroke:none" />
  </g>
  <g
     class="rectAndTicks"
     id="g677"
     transform="translate(167.68974,123.73995)">
    <rect
       x="-108.58037"
       y="-10"
       width="217.16074"
       height="20"
       id="rect679"
       style="fill:none;stroke:#000000;stroke-width:0.75" />
    <g
       class="rect"
       transform="scale(4.5,1)"
       id="g681">
      <rect
         class="pBackground Xlr_protein"
         x="-24.128971"
         y="-10"
         width="48.257942"
         height="20"
         id="rect683"
         style="fill-opacity:0;stroke:none" />
    </g>
    <g
       id="g685">
      <line
         x1="-108.18191"
         y1="-7.5"
         x2="-108.18191"
         y2="7.5"
         id="line687"
         style="stroke:#000000" />
      <g
         transform="translate(-108.18191,0)"
         id="g689">
        <text
           class="Xlr_proteinScaleLabelText"
           font-size="14"
           x="0"
           y="23"
           id="text691"
           style="font-size:14px;text-anchor:middle;font-family:Arial">1</text>
      </g>
      <line
         x1="-68.73436"
         y1="-7.5"
         x2="-68.73436"
         y2="7.5"
         id="line693"
         style="stroke:#000000" />
      <line
         x1="-28.888353"
         y1="-7.5"
         x2="-28.888353"
         y2="7.5"
         id="line695"
         style="stroke:#000000" />
      <g
         transform="translate(-28.888354,0)"
         id="g697">
        <text
           class="Xlr_proteinScaleLabelText"
           font-size="14"
           x="0"
           y="23"
           id="text699"
           style="font-size:14px;text-anchor:middle;font-family:Arial">200</text>
      </g>
      <line
         x1="10.957651"
         y1="-7.5"
         x2="10.957651"
         y2="7.5"
         id="line701"
         style="stroke:#000000" />
      <line
         x1="50.803658"
         y1="-7.5"
         x2="50.803658"
         y2="7.5"
         id="line703"
         style="stroke:#000000" />
      <g
         transform="translate(50.803657,0)"
         id="g705">
        <text
           class="Xlr_proteinScaleLabelText"
           font-size="14"
           x="0"
           y="23"
           id="text707"
           style="font-size:14px;text-anchor:middle;font-family:Arial">400</text>
      </g>
      <line
         x1="90.649666"
         y1="-7.5"
         x2="90.649666"
         y2="7.5"
         id="line709"
         style="stroke:#000000" />
      <g
         transform="translate(108.58037,0)"
         id="g711">
        <text
           class="Xlr_proteinScaleLabelText"
           font-size="14"
           x="0"
           y="23"
           id="text713"
           style="font-size:14px;text-anchor:middle;font-family:Arial">545</text>
      </g>
      <line
         x1="108.58037"
         y1="-7.5"
         x2="108.58037"
         y2="7.5"
         id="line715"
         style="stroke:#000000" />
    </g>
  </g>
</svg>
